<?xml version="1.0" encoding="utf-8"?>
<!-- Generator: Adobe Illustrator 16.0.0, SVG Export Plug-In . SVG Version: 6.00 Build 0)  -->
<!DOCTYPE svg PUBLIC "-//W3C//DTD SVG 1.1//EN" "http://www.w3.org/Graphics/SVG/1.1/DTD/svg11.dtd">
<svg version="1.1" id="Layer_1" xmlns="http://www.w3.org/2000/svg" xmlns:xlink="http://www.w3.org/1999/xlink" x="0px" y="0px"
	 width="510.236px" height="212.598px" viewBox="0 0 510.236 212.598" enable-background="new 0 0 510.236 212.598"
	 xml:space="preserve">
<g>
	<path fill="#FFFFFF" d="M406.97,113.116c0,6.818-3.594,10.474-8.49,10.474c-4.833,0-8.491-3.655-8.491-10.474
		c0-6.755,3.658-10.411,8.491-10.411C403.376,102.705,406.97,106.361,406.97,113.116 M414.035,126.069V88.947
		c0-2.293-1.735-3.471-3.532-3.471c-1.798,0-3.533,1.178-3.533,3.471v9.172c-2.354-1.674-5.144-2.479-8.49-2.479
		c-9.978,0-15.556,8.117-15.556,17.476c0,9.42,5.578,17.539,15.556,17.539c3.471,0,6.136-0.992,8.925-2.727
		c0.619,1.115,1.797,1.673,3.036,1.673C412.176,129.602,414.035,128.424,414.035,126.069 M379.102,99.172
		c0-1.797-1.178-3.531-3.533-3.531c-2.789,0-5.453,0.743-7.746,2.293c-0.744-0.807-1.797-1.24-2.852-1.24
		c-1.734,0-3.531,1.116-3.531,3.533v25.843c0,2.354,1.797,3.532,3.531,3.532c1.797,0,3.533-1.178,3.533-3.532v-16.299
		c0-3.966,3.098-7.065,7.064-7.065C377.924,102.705,379.102,100.908,379.102,99.172 M351.238,126.069v-25.843
		c0-2.355-1.922-3.533-3.532-3.533c-1.611,0-3.533,1.178-3.533,3.533v25.843c0,2.354,1.922,3.532,3.533,3.532
		C349.316,129.602,351.238,128.424,351.238,126.069 M353.035,87.211c0-2.912-2.416-5.267-5.329-5.267s-5.269,2.354-5.269,5.267
		c0,2.913,2.355,5.269,5.269,5.269S353.035,90.124,353.035,87.211 M328.631,113.116c0,6.818-3.596,10.474-8.491,10.474
		s-8.489-3.655-8.489-10.474c0-6.755,3.594-10.411,8.489-10.411S328.631,106.361,328.631,113.116 M335.695,113.116
		c0-9.358-5.578-17.476-15.556-17.476c-3.346,0-6.135,0.805-8.489,2.479v-9.172c0-2.293-1.735-3.471-3.533-3.471
		c-1.735,0-3.532,1.178-3.532,3.471v37.122c0,2.354,1.858,3.594,3.594,3.594c1.24,0,2.354-0.557,3.037-1.734
		c2.479,1.673,5.33,2.727,8.924,2.727C330.117,130.655,335.695,122.536,335.695,113.116 M298.232,99.172
		c0-1.797-1.177-3.531-3.531-3.531c-2.789,0-5.454,0.743-7.747,2.293c-0.744-0.807-1.798-1.24-2.851-1.24
		c-1.736,0-3.533,1.116-3.533,3.533v25.843c0,2.354,1.797,3.532,3.533,3.532c1.797,0,3.532-1.178,3.532-3.532v-16.299
		c0-3.966,3.099-7.065,7.065-7.065C297.056,102.705,298.232,100.908,298.232,99.172 M265.245,109.584H249.07
		c1.053-4.214,3.779-6.879,8.056-6.879C261.154,102.705,264.191,105.061,265.245,109.584 M272.62,113.116
		c0-10.969-6.88-17.476-15.494-17.476c-10.101,0-15.556,8.304-15.556,17.476c0,9.297,5.455,17.539,15.556,17.539
		c4.772,0,11.899-3.223,11.899-6.569c0-1.921-1.922-3.595-3.904-3.595c-0.868,0-1.674,0.372-2.479,1.116
		c-1.426,1.363-3.285,1.982-5.517,1.982c-4.028,0-7.065-2.417-8.118-6.94h20.079C271.38,116.649,272.62,114.914,272.62,113.116
		 M236.234,126.131c0-0.619-0.186-1.239-0.619-1.982l-8.676-13.572l7.809-7.809c0.805-0.807,1.053-1.611,1.053-2.479
		c0-1.921-1.673-3.595-3.594-3.595c-0.807,0-1.674,0.248-2.479,1.054l-12.209,12.209V88.947c0-2.293-1.922-3.471-3.533-3.471
		s-3.532,1.178-3.532,3.471v37.122c0,2.354,1.921,3.532,3.532,3.532s3.533-1.178,3.533-3.532v-6.135l4.275-4.277l7.871,12.333
		c0.806,1.116,1.921,1.611,2.913,1.611C234.438,129.602,236.234,128.053,236.234,126.131 M204.102,99.172
		c0-1.797-1.177-3.531-3.531-3.531c-2.789,0-5.455,0.743-7.748,2.293c-0.743-0.807-1.797-1.24-2.851-1.24
		c-1.735,0-3.532,1.116-3.532,3.533v25.843c0,2.354,1.797,3.532,3.532,3.532c1.798,0,3.533-1.178,3.533-3.532v-16.299
		c0-3.966,3.099-7.065,7.065-7.065C202.925,102.705,204.102,100.908,204.102,99.172 M170.588,113.116
		c0,6.818-3.596,10.474-8.491,10.474c-4.834,0-8.489-3.655-8.489-10.474c0-6.755,3.655-10.411,8.489-10.411
		C166.992,102.705,170.588,106.361,170.588,113.116 M177.652,113.116c0-9.358-5.578-17.476-15.556-17.476
		c-9.977,0-15.555,8.117-15.555,17.476c0,9.42,5.578,17.539,15.555,17.539C172.074,130.655,177.652,122.536,177.652,113.116
		 M141.814,99.979c0-1.983-1.859-3.348-3.656-3.348c-1.364,0-2.604,0.683-3.285,2.355l-6.073,16.919
		c-5.826-15.555-6.198-16.113-6.198-16.113c-0.806-2.045-1.921-3.099-3.594-3.099c-1.922,0-2.913,1.178-3.533,2.913l-6.32,16.299
		l-6.074-16.919c-0.619-1.673-1.735-2.355-3.16-2.355c-1.859,0-3.719,1.364-3.719,3.348c0,0.434,0.062,0.806,0.248,1.425l8.986,25.1
		c0.867,2.231,1.859,3.099,3.532,3.099c1.983,0,2.976-1.178,3.595-2.851l6.445-16.732c6.135,15.927,6.135,16.423,6.26,16.547
		c0.805,1.982,1.858,3.036,3.471,3.036c2.106,0,3.035-1.178,3.656-2.912l9.172-25.286
		C141.752,100.908,141.814,100.412,141.814,99.979"/>
</g>
</svg>
