<?xml version="1.0" encoding="utf-8"?>
<!-- Generator: Adobe Illustrator 16.0.0, SVG Export Plug-In . SVG Version: 6.00 Build 0)  -->
<!DOCTYPE svg PUBLIC "-//W3C//DTD SVG 1.1//EN" "http://www.w3.org/Graphics/SVG/1.1/DTD/svg11.dtd">
<svg version="1.1" id="Layer_1" xmlns="http://www.w3.org/2000/svg" xmlns:xlink="http://www.w3.org/1999/xlink" x="0px" y="0px"
	 width="357.584px" height="553.452px" viewBox="0 0 357.584 553.452" enable-background="new 0 0 357.584 553.452"
	 xml:space="preserve">
<path fill="#FFFFFF" d="M203.558,345.188c0.15,0.152,0.314,0.283,0.485,0.396l-5.447,5.449c-1.191,1.19-1.191,3.122,0.002,4.317
	c0.595,0.596,1.376,0.893,2.155,0.893c0.782,0,1.564-0.297,2.161-0.895l14.895-14.896l6.034,6.031
	c0.595,0.596,1.376,0.892,2.158,0.892c0.779,0,1.562-0.296,2.158-0.895c1.191-1.19,1.191-3.122-0.002-4.315l-27.544-27.547
	c14.855-10.008,28.581-28.283,37.417-61.626c12.077-45.588,24.392-56.308,38.552-63.878c3.431-1.835,8.698-4.31,12.674-5.509
	c3.189-0.959,5.479-1.63,5.479-2.602c0-1.088-2.331-1.825-5.084-2.287c-14.514-2.43-27.758-5.349-46.383-5.349
	c-18.623,0-30.436,3.006-41.306,10.472c-12.039,8.265-62.43,49.209-86.356,96.267c0,0-41.102,39.493-49.735,49.446
	c-6.197,7.145-2.059,11.628,5.187,8.612c7.003-2.919,31.927-18.18,31.927-18.18c-18.023,30.882-27.853,43.696-31.396,53.501
	c-1.078,2.98-1.039,4.938,0.327,5.832c2.527,1.658,4.877,0.657,9.862-3.384c4.862-3.944,53.151-48.852,53.151-48.852
	c10.381-1.39,28.25,1.483,46.766-3.761l10.529,10.533l-12.347,12.352c-1.193,1.193-1.193,3.124,0,4.317
	c0.595,0.595,1.377,0.891,2.157,0.891s1.562-0.296,2.16-0.894l12.346-12.351L203.558,345.188z M252.742,181.413
	c2.688,0,4.863,2.178,4.863,4.859c0,2.689-2.175,4.864-4.863,4.864c-2.683,0-4.859-2.175-4.859-4.864
	C247.883,183.591,250.06,181.413,252.742,181.413z M143,303.518c-5.914-5.05,23.764-90.03,58.949-73.776
	c18.021,8.328,27.421,36.567,3.825,55.189C183.025,302.882,149.361,308.951,143,303.518z M188.155,321.158
	c2.366-0.929,4.729-2.019,7.077-3.283l18.26,18.259l-5.225,5.229c-0.114-0.17-0.245-0.336-0.396-0.489L188.155,321.158z"/>
</svg>
