<?xml version="1.0" encoding="utf-8"?>
<!-- Generator: Adobe Illustrator 21.0.2, SVG Export Plug-In . SVG Version: 6.00 Build 0)  -->
<svg version="1.1" id="Layer_1" xmlns="http://www.w3.org/2000/svg" xmlns:xlink="http://www.w3.org/1999/xlink" x="0px" y="0px"
	 viewBox="0 0 273 254" style="enable-background:new 0 0 273 254;" xml:space="preserve">
<style type="text/css">
	.st0{fill:#FFFFFF;}
</style>
<path class="st0" d="M161.6,200.2c0.1,0.2,0.3,0.3,0.5,0.4l-5.4,5.4c-1.2,1.2-1.2,3.1,0,4.3c0.6,0.6,1.4,0.9,2.2,0.9
	c0.8,0,1.6-0.3,2.2-0.9l14.9-14.9l6,6c0.6,0.6,1.4,0.9,2.2,0.9c0.8,0,1.6-0.3,2.2-0.9c1.2-1.2,1.2-3.1,0-4.3l-27.5-27.5
	c14.9-10,28.6-28.3,37.4-61.6c12.1-45.6,24.4-56.3,38.6-63.9c3.4-1.8,8.7-4.3,12.7-5.5c3.2-1,5.5-1.6,5.5-2.6c0-1.1-2.3-1.8-5.1-2.3
	c-14.5-2.4-27.8-5.3-46.4-5.3c-18.6,0-30.4,3-41.3,10.5c-12,8.3-62.4,49.2-86.4,96.3c0,0-41.1,39.5-49.7,49.4
	c-6.2,7.1-2.1,11.6,5.2,8.6C36.1,190.2,61,175,61,175c-18,30.9-27.9,43.7-31.4,53.5c-1.1,3-1,4.9,0.3,5.8c2.5,1.7,4.9,0.7,9.9-3.4
	c4.9-3.9,53.2-48.9,53.2-48.9c10.4-1.4,28.2,1.5,46.8-3.8l10.5,10.5l-12.3,12.4c-1.2,1.2-1.2,3.1,0,4.3c0.6,0.6,1.4,0.9,2.2,0.9
	s1.6-0.3,2.2-0.9l12.3-12.4L161.6,200.2z M210.7,36.4c2.7,0,4.9,2.2,4.9,4.9c0,2.7-2.2,4.9-4.9,4.9c-2.7,0-4.9-2.2-4.9-4.9
	C205.9,38.6,208.1,36.4,210.7,36.4z M101,158.5c-5.9-5,23.8-90,58.9-73.8c18,8.3,27.4,36.6,3.8,55.2C141,157.9,107.4,164,101,158.5z
	 M146.2,176.2c2.4-0.9,4.7-2,7.1-3.3l18.3,18.3l-5.2,5.2c-0.1-0.2-0.2-0.3-0.4-0.5L146.2,176.2z"/>
</svg>
