<?xml version="1.0" encoding="utf-8"?>
<!-- Generator: Adobe Illustrator 21.0.2, SVG Export Plug-In . SVG Version: 6.00 Build 0)  -->
<svg version="1.1" id="Layer_1" xmlns="http://www.w3.org/2000/svg" xmlns:xlink="http://www.w3.org/1999/xlink" x="0px" y="0px"
	 viewBox="0 0 348 91" style="enable-background:new 0 0 348 91;" xml:space="preserve">
<style type="text/css">
	.st0{fill:#FFFFFF;}
</style>
<g>
	<path class="st0" d="M325,49.1c0,6.8-3.6,10.5-8.5,10.5c-4.8,0-8.5-3.7-8.5-10.5c0-6.8,3.7-10.4,8.5-10.4
		C321.4,38.7,325,42.4,325,49.1 M332,62.1V24.9c0-2.3-1.7-3.5-3.5-3.5c-1.8,0-3.5,1.2-3.5,3.5v9.2c-2.4-1.7-5.1-2.5-8.5-2.5
		c-10,0-15.6,8.1-15.6,17.5c0,9.4,5.6,17.5,15.6,17.5c3.5,0,6.1-1,8.9-2.7c0.6,1.1,1.8,1.7,3,1.7C330.2,65.6,332,64.4,332,62.1
		 M297.1,35.2c0-1.8-1.2-3.5-3.5-3.5c-2.8,0-5.5,0.7-7.7,2.3c-0.7-0.8-1.8-1.2-2.9-1.2c-1.7,0-3.5,1.1-3.5,3.5v25.8
		c0,2.4,1.8,3.5,3.5,3.5c1.8,0,3.5-1.2,3.5-3.5V45.8c0-4,3.1-7.1,7.1-7.1C295.9,38.7,297.1,36.9,297.1,35.2 M269.2,62.1V36.2
		c0-2.4-1.9-3.5-3.5-3.5c-1.6,0-3.5,1.2-3.5,3.5v25.8c0,2.4,1.9,3.5,3.5,3.5C267.3,65.6,269.2,64.4,269.2,62.1 M271,23.2
		c0-2.9-2.4-5.3-5.3-5.3s-5.3,2.4-5.3,5.3c0,2.9,2.4,5.3,5.3,5.3S271,26.1,271,23.2 M246.6,49.1c0,6.8-3.6,10.5-8.5,10.5
		s-8.5-3.7-8.5-10.5c0-6.8,3.6-10.4,8.5-10.4S246.6,42.4,246.6,49.1 M253.7,49.1c0-9.4-5.6-17.5-15.6-17.5c-3.3,0-6.1,0.8-8.5,2.5
		v-9.2c0-2.3-1.7-3.5-3.5-3.5c-1.7,0-3.5,1.2-3.5,3.5v37.1c0,2.4,1.9,3.6,3.6,3.6c1.2,0,2.4-0.6,3-1.7c2.5,1.7,5.3,2.7,8.9,2.7
		C248.1,66.7,253.7,58.5,253.7,49.1 M216.2,35.2c0-1.8-1.2-3.5-3.5-3.5c-2.8,0-5.5,0.7-7.7,2.3c-0.7-0.8-1.8-1.2-2.9-1.2
		c-1.7,0-3.5,1.1-3.5,3.5v25.8c0,2.4,1.8,3.5,3.5,3.5c1.8,0,3.5-1.2,3.5-3.5V45.8c0-4,3.1-7.1,7.1-7.1
		C215.1,38.7,216.2,36.9,216.2,35.2 M183.2,45.6h-16.2c1.1-4.2,3.8-6.9,8.1-6.9C179.2,38.7,182.2,41.1,183.2,45.6 M190.6,49.1
		c0-11-6.9-17.5-15.5-17.5c-10.1,0-15.6,8.3-15.6,17.5c0,9.3,5.5,17.5,15.6,17.5c4.8,0,11.9-3.2,11.9-6.6c0-1.9-1.9-3.6-3.9-3.6
		c-0.9,0-1.7,0.4-2.5,1.1c-1.4,1.4-3.3,2-5.5,2c-4,0-7.1-2.4-8.1-6.9h20.1C189.4,52.6,190.6,50.9,190.6,49.1 M154.2,62.1
		c0-0.6-0.2-1.2-0.6-2l-8.7-13.6l7.8-7.8c0.8-0.8,1.1-1.6,1.1-2.5c0-1.9-1.7-3.6-3.6-3.6c-0.8,0-1.7,0.2-2.5,1.1L135.5,46v-21
		c0-2.3-1.9-3.5-3.5-3.5s-3.5,1.2-3.5,3.5v37.1c0,2.4,1.9,3.5,3.5,3.5s3.5-1.2,3.5-3.5v-6.1l4.3-4.3l7.9,12.3
		c0.8,1.1,1.9,1.6,2.9,1.6C152.4,65.6,154.2,64.1,154.2,62.1 M122.1,35.2c0-1.8-1.2-3.5-3.5-3.5c-2.8,0-5.5,0.7-7.7,2.3
		c-0.7-0.8-1.8-1.2-2.9-1.2c-1.7,0-3.5,1.1-3.5,3.5v25.8c0,2.4,1.8,3.5,3.5,3.5c1.8,0,3.5-1.2,3.5-3.5V45.8c0-4,3.1-7.1,7.1-7.1
		C120.9,38.7,122.1,36.9,122.1,35.2 M88.6,49.1c0,6.8-3.6,10.5-8.5,10.5c-4.8,0-8.5-3.7-8.5-10.5c0-6.8,3.7-10.4,8.5-10.4
		C85,38.7,88.6,42.4,88.6,49.1 M95.7,49.1c0-9.4-5.6-17.5-15.6-17.5c-10,0-15.6,8.1-15.6,17.5c0,9.4,5.6,17.5,15.6,17.5
		C90.1,66.7,95.7,58.5,95.7,49.1 M59.8,36c0-2-1.9-3.3-3.7-3.3c-1.4,0-2.6,0.7-3.3,2.4l-6.1,16.9c-5.8-15.6-6.2-16.1-6.2-16.1
		c-0.8-2-1.9-3.1-3.6-3.1c-1.9,0-2.9,1.2-3.5,2.9l-6.3,16.3L21.1,35c-0.6-1.7-1.7-2.4-3.2-2.4c-1.9,0-3.7,1.4-3.7,3.3
		c0,0.4,0.1,0.8,0.2,1.4l9,25.1c0.9,2.2,1.9,3.1,3.5,3.1c2,0,3-1.2,3.6-2.9L37,46c6.1,15.9,6.1,16.4,6.3,16.5c0.8,2,1.9,3,3.5,3
		c2.1,0,3-1.2,3.7-2.9l9.2-25.3C59.8,36.9,59.8,36.4,59.8,36"/>
</g>
</svg>
