<svg xmlns="http://www.w3.org/2000/svg" xmlns:xlink="http://www.w3.org/1999/xlink" viewBox="0 0 72 72" version="1.1" x="0px" y="0px"><title>insights-advice</title><desc>Created with Sketch.</desc><g stroke="none" stroke-width="1" fill="none" fill-rule="evenodd"><g fill="#000000"><path d="M24.998,45 C24.752,45 24.51,44.909 24.321,44.736 L11.822,33.237 C11.713,33.137 11.631,33.017 11.576,32.888 C9.266,30.634 8,27.854 8,25 C8,17.832 15.851,12 25.5,12 C35.149,12 43,17.832 43,25 C43,25.553 42.553,26 42,26 C41.447,26 41,25.553 41,25 C41,18.935 34.047,14 25.5,14 C16.953,14 10,18.935 10,25 C10,27.5 11.167,29.861 13.376,31.831 C13.487,31.931 13.572,32.051 13.628,32.181 L23.999,41.722 L24,37.205 C23.969,37.075 23.964,36.939 23.989,36.804 C24.08,36.321 24.468,35.98 24.97,35.979 L25.221,35.99 C25.795,36.021 26.37,35.991 26.935,35.953 C27.506,35.932 27.963,36.336 27.998,36.886 C28.034,37.438 27.616,37.913 27.065,37.949 C26.713,37.972 26.357,37.987 26,37.995 L25.998,44 C25.998,44.397 25.763,44.757 25.399,44.916 C25.27,44.973 25.134,45 24.998,45"></path><path d="M49,53.3115 L49.001,57.7215 L59.372,48.1805 C59.428,48.0505 59.513,47.9305 59.624,47.8315 C61.833,45.8615 63,43.4995 63,40.9995 C63,34.9345 56.047,29.9995 47.5,29.9995 C38.953,29.9995 32,34.9345 32,40.9995 C32,47.0655 38.953,51.9995 47.5,51.9995 C47.595,51.9995 47.688,51.9955 47.78,51.9905 L48.03,51.9795 C48.503,51.9695 48.948,52.3115 49.039,52.7935 C49.073,52.9715 49.057,53.1495 49,53.3115 M48.002,60.9995 C47.866,60.9995 47.729,60.9725 47.601,60.9155 C47.237,60.7565 47.002,60.3975 47.002,59.9995 L47,53.9955 C37.581,53.7975 30,48.0435 30,40.9995 C30,33.8325 37.851,27.9995 47.5,27.9995 C57.149,27.9995 65,33.8325 65,40.9995 C65,43.8545 63.734,46.6335 61.424,48.8875 C61.369,49.0165 61.287,49.1365 61.178,49.2375 L48.679,60.7365 C48.491,60.9095 48.248,60.9995 48.002,60.9995"></path><path d="M25.5654,29.1729 C26.3764,29.1729 27.0424,29.8399 27.0424,30.6499 C27.0424,31.4599 26.3764,32.1259 25.5654,32.1259 C24.7544,32.1259 24.0884,31.4599 24.0884,30.6499 C24.0884,29.8399 24.7544,29.1729 25.5654,29.1729 M25.6554,18.8019 C27.9604,18.8019 30.2284,19.8639 30.2284,22.4029 C30.2284,24.7439 27.5454,25.6449 26.9694,26.4899 C26.5384,27.1199 26.6814,28.0029 25.4934,28.0029 C24.7184,28.0029 24.3404,27.3729 24.3404,26.7969 C24.3404,24.6539 27.4924,24.1679 27.4924,22.4029 C27.4924,21.4309 26.8434,20.8549 25.7634,20.8549 C23.4594,20.8549 24.3594,23.2319 22.6124,23.2319 C21.9824,23.2319 21.4424,22.8539 21.4424,22.1329 C21.4424,20.3679 23.4594,18.8019 25.6554,18.8019"></path><path d="M50,48 L46,48 C45.447,48 45,47.553 45,47 C45,46.447 45.447,46 46,46 L47,46 L47,41 L46,41 C45.447,41 45,40.553 45,40 C45,39.447 45.447,39 46,39 L48,39 C48.553,39 49,39.447 49,40 L49,46 L50,46 C50.553,46 51,46.447 51,47 C51,47.553 50.553,48 50,48"></path><path d="M49,36.5 C49,37.328 48.328,38 47.5,38 C46.672,38 46,37.328 46,36.5 C46,35.672 46.672,35 47.5,35 C48.328,35 49,35.672 49,36.5"></path></g></g></svg>