<svg xmlns="http://www.w3.org/2000/svg" xmlns:xlink="http://www.w3.org/1999/xlink" version="1.1" x="0px" y="0px" viewBox="0 0 100 100" enable-background="new 0 0 100 100" xml:space="preserve"><path d="M70.974,62.626l-1.84,1.839l-5.367-5.369c6.537-8.658,5.885-21.016-2.006-28.904c-8.629-8.63-22.615-8.63-31.244,0  c-8.629,8.627-8.629,22.617,0,31.244c7.891,7.892,20.25,8.541,28.906,2.005l5.367,5.37l-1.838,1.834l20.887,20.887l8.02-8.02  L70.974,62.626z M58.003,57.674c-6.553,6.553-17.174,6.553-23.729,0c-6.551-6.55-6.551-17.172,0-23.725  c6.553-6.55,17.174-6.555,23.729,0C64.554,40.502,64.554,51.124,58.003,57.674z"></path><path d="M53.817,78.886H13.38V15.341h40.438v7.103c1.838,0.602,3.598,1.42,5.246,2.443V14.519C59.063,9.273,54.792,5,49.548,5  H17.655c-5.248,0-9.514,4.273-9.514,9.519v70.965c0,5.246,4.266,9.517,9.514,9.517h31.893c5.244,0,9.516-4.271,9.516-9.517V66.708  c-1.645,1.015-3.41,1.821-5.246,2.427V78.886z M28.862,8.043h9.479c1.062,0,1.9,1.037,1.9,2.364s-0.838,2.365-1.9,2.365h-9.479  c-1.062,0-1.904-1.038-1.904-2.365S27.8,8.043,28.862,8.043z M33.599,91.561c-2.703,0-4.902-2.199-4.902-4.902  c0-2.702,2.199-4.901,4.902-4.901c2.701,0,4.898,2.199,4.898,4.901C38.497,89.361,36.3,91.561,33.599,91.561z"></path><path d="M52.509,33.042v25.54c1.359-0.68,2.619-1.569,3.727-2.676c2.488-2.488,3.93-5.737,4.139-9.222v-1.743  c-0.209-3.484-1.65-6.734-4.139-9.225C55.128,34.611,53.868,33.721,52.509,33.042z"></path><path d="M46.892,33.35c-2.383,0-4.318,1.938-4.318,4.318c0,1.242,0.534,2.355,1.375,3.143l-3.284,4.742  c-0.493-0.195-1.025-0.311-1.587-0.311c-1.072,0-2.042,0.407-2.798,1.057l-4.188-2.988c-0.135,0.766-0.213,1.545-0.223,2.338  l3.212,2.291c-0.204,0.502-0.321,1.047-0.321,1.62c0,2.383,1.938,4.317,4.318,4.317s4.318-1.935,4.318-4.317  c0-1.085-0.416-2.065-1.079-2.824l3.415-4.929c0.371,0.105,0.756,0.179,1.16,0.179c2.383,0,4.318-1.935,4.318-4.317  C51.21,35.287,49.274,33.35,46.892,33.35z M39.077,51.848c-1.26,0-2.285-1.027-2.285-2.288s1.025-2.284,2.285-2.284  s2.287,1.023,2.287,2.284S40.337,51.848,39.077,51.848z M46.892,39.955c-0.146,0-0.286-0.018-0.424-0.043l-0.854-0.349  c-0.608-0.411-1.008-1.107-1.008-1.896c0-1.26,1.023-2.286,2.285-2.286c1.26,0,2.285,1.026,2.285,2.286  C49.177,38.929,48.151,39.955,46.892,39.955z"></path><path d="M21.55,45.979l-3.066,2.729c-0.449-0.347-1.004-0.562-1.613-0.562c-1.465,0-2.656,1.193-2.656,2.657  c0,1.465,1.191,2.656,2.656,2.656s2.656-1.191,2.656-2.656c0-0.401-0.097-0.779-0.257-1.121l2.347-2.09  C21.577,47.057,21.552,46.52,21.55,45.979z M16.87,52.21c-0.775,0-1.406-0.632-1.406-1.406c0-0.775,0.631-1.406,1.406-1.406  s1.406,0.631,1.406,1.406C18.276,51.578,17.646,52.21,16.87,52.21z"></path></svg>