<svg xmlns="http://www.w3.org/2000/svg" xmlns:xlink="http://www.w3.org/1999/xlink" version="1.1" x="0px" y="0px" viewBox="0 0 100 100" enable-background="new 0 0 100 100" xml:space="preserve"><g><g><circle cx="55.4" cy="27.4" r="3.9"></circle><circle cx="55.4" cy="72.6" r="3.9"></circle><circle cx="78" cy="50" r="3.9"></circle><path d="M95,46.9c-0.7-9.1-4.5-18-11.5-25C71.7,10.1,54.2,7.4,39.7,13.6c1.2,1.1,1.9,2.8,1.9,4.5l-0.2,5.3    c11.4-6,25.8-4.2,35.3,5.4c11.7,11.7,11.7,30.9,0,42.6c-10,10-25.3,11.5-36.8,4.5c0.4,1.5,0.2,3.1-0.6,4.5c-1,1.8-3,2.9-5,2.9    c-0.1,0-0.2,0-0.3,0c15.4,10,36.1,8.2,49.6-5.2c7-7,10.8-15.9,11.5-25L95,46.9z"></path><path d="M36.2,78.6c0.6-1,0.3-2.3-0.7-3c-0.1-0.1-10.5-7.4-6.8-26.4l4.7,2.9c0.7,0.4,1.5,0.5,2.2,0.1c0.7-0.4,1.2-1.1,1.2-1.9    L38,18c0-0.8-0.4-1.6-1.1-2c-0.7-0.4-1.5-0.5-2.2-0.1L6.2,31.1C5.5,31.5,5,32.2,5,33c0,0.8,0.4,1.6,1.1,2l5.4,3.4    c-2.3,9.2-3.4,28.2,21.8,41c0.3,0.2,0.7,0.2,1,0.2C35,79.7,35.8,79.3,36.2,78.6z"></path></g><path d="M60,50.2l9.3-10.7c0.9-0.9,0.9-2.4,0-3.4s-2.4-0.9-3.4,0c0,0-14.2,8.7-15.2,9.5c-1.2,1-2,2.4-2.1,4l0,0l0,0   c0,0.1,0,0.2,0,0.4c0,2.1,1.2,4,2.9,5c0.8,0.5,18.6,12,18.6,12c0.9,0.9,2.4,0.9,3.4,0c0.9-0.9,0.9-2.4,0-3.4L60,50.2z"></path></g></svg>